<mxfile host="app.diagrams.net" agent="Mozilla/5.0 (Windows NT 10.0; Win64; x64; rv:132.0) Gecko/20100101 Firefox/132.0" version="24.8.6">
  <diagram name="Страница — 1" id="o81VLTeZpcqACZo5OVml">
    <mxGraphModel dx="712" dy="773" grid="1" gridSize="10" guides="1" tooltips="1" connect="1" arrows="1" fold="1" page="1" pageScale="1" pageWidth="827" pageHeight="1169" math="0" shadow="0">
      <root>
        <mxCell id="0" />
        <mxCell id="1" parent="0" />
        <mxCell id="9uwFgpclSzAUGzo8QO8J-1" value="" style="rounded=0;whiteSpace=wrap;html=1;" vertex="1" parent="1">
          <mxGeometry x="120" y="160" width="640" height="360" as="geometry" />
        </mxCell>
        <mxCell id="9uwFgpclSzAUGzo8QO8J-2" value="" style="rounded=0;whiteSpace=wrap;html=1;" vertex="1" parent="1">
          <mxGeometry x="120" y="160" width="640" height="40" as="geometry" />
        </mxCell>
        <mxCell id="9uwFgpclSzAUGzo8QO8J-3" value="1" style="rounded=0;whiteSpace=wrap;html=1;" vertex="1" parent="1">
          <mxGeometry x="130" y="170" width="40" height="20" as="geometry" />
        </mxCell>
        <mxCell id="9uwFgpclSzAUGzo8QO8J-4" value="2" style="rounded=0;whiteSpace=wrap;html=1;" vertex="1" parent="1">
          <mxGeometry x="630" y="170" width="110" height="20" as="geometry" />
        </mxCell>
        <mxCell id="9uwFgpclSzAUGzo8QO8J-5" value="" style="rounded=0;whiteSpace=wrap;html=1;" vertex="1" parent="1">
          <mxGeometry x="120" y="200" width="640" height="20" as="geometry" />
        </mxCell>
        <mxCell id="9uwFgpclSzAUGzo8QO8J-6" value="4" style="rounded=0;whiteSpace=wrap;html=1;" vertex="1" parent="1">
          <mxGeometry x="300" y="200" width="70" height="20" as="geometry" />
        </mxCell>
        <mxCell id="9uwFgpclSzAUGzo8QO8J-7" value="5" style="rounded=0;whiteSpace=wrap;html=1;" vertex="1" parent="1">
          <mxGeometry x="370" y="200" width="70" height="20" as="geometry" />
        </mxCell>
        <mxCell id="9uwFgpclSzAUGzo8QO8J-8" value="6" style="rounded=0;whiteSpace=wrap;html=1;" vertex="1" parent="1">
          <mxGeometry x="440" y="200" width="70" height="20" as="geometry" />
        </mxCell>
        <mxCell id="9uwFgpclSzAUGzo8QO8J-9" value="7" style="rounded=0;whiteSpace=wrap;html=1;" vertex="1" parent="1">
          <mxGeometry x="510" y="200" width="70" height="20" as="geometry" />
        </mxCell>
        <mxCell id="9uwFgpclSzAUGzo8QO8J-10" value="8" style="rounded=0;whiteSpace=wrap;html=1;" vertex="1" parent="1">
          <mxGeometry x="580" y="200" width="70" height="20" as="geometry" />
        </mxCell>
        <mxCell id="9uwFgpclSzAUGzo8QO8J-11" value="3" style="rounded=0;whiteSpace=wrap;html=1;" vertex="1" parent="1">
          <mxGeometry x="230" y="200" width="70" height="20" as="geometry" />
        </mxCell>
        <mxCell id="9uwFgpclSzAUGzo8QO8J-12" value="" style="rounded=0;whiteSpace=wrap;html=1;" vertex="1" parent="1">
          <mxGeometry x="190" y="230" width="510" height="290" as="geometry" />
        </mxCell>
        <mxCell id="9uwFgpclSzAUGzo8QO8J-13" value="12" style="rounded=0;whiteSpace=wrap;html=1;" vertex="1" parent="1">
          <mxGeometry x="120" y="520" width="640" height="40" as="geometry" />
        </mxCell>
        <mxCell id="9uwFgpclSzAUGzo8QO8J-14" value="9" style="rounded=0;whiteSpace=wrap;html=1;" vertex="1" parent="1">
          <mxGeometry x="190" y="230" width="510" height="40" as="geometry" />
        </mxCell>
        <mxCell id="9uwFgpclSzAUGzo8QO8J-15" value="10" style="rounded=0;whiteSpace=wrap;html=1;" vertex="1" parent="1">
          <mxGeometry x="197.5" y="280" width="485" height="110" as="geometry" />
        </mxCell>
        <mxCell id="9uwFgpclSzAUGzo8QO8J-21" value="11" style="rounded=0;whiteSpace=wrap;html=1;" vertex="1" parent="1">
          <mxGeometry x="197.5" y="400" width="485" height="110" as="geometry" />
        </mxCell>
      </root>
    </mxGraphModel>
  </diagram>
</mxfile>
